<?xml version="1.0" encoding="UTF-8"?>
<!DOCTYPE xmeml>
<xmeml version="4">
	<sequence id="sequence-2" TL.SQAudioVisibleBase="0" TL.SQVideoVisibleBase="0" TL.SQVisibleBaseTime="0" TL.SQAVDividerPosition="0.5" TL.SQHideShyTracks="0" TL.SQHeaderWidth="204" TL.SQDataTrackViewControlState="1" Monitor.ProgramZoomOut="17171701747200" Monitor.ProgramZoomIn="0" TL.SQTimePerPixel="0.064958360142044244" MZ.EditLine="0" MZ.Sequence.PreviewFrameSizeHeight="2160" MZ.Sequence.PreviewFrameSizeWidth="3840" MZ.Sequence.AudioTimeDisplayFormat="200" MZ.Sequence.PreviewRenderingClassID="1061109567" MZ.Sequence.PreviewRenderingPresetCodec="1634755443" MZ.Sequence.PreviewRenderingPresetPath="EncoderPresets/SequencePreview/795454d9-d3c2-429d-9474-923ab13b7018/QuickTime.epr" MZ.Sequence.PreviewUseMaxRenderQuality="false" MZ.Sequence.PreviewUseMaxBitDepth="false" MZ.Sequence.EditingModeGUID="795454d9-d3c2-429d-9474-923ab13b7018" MZ.Sequence.VideoTimeDisplayFormat="102" MZ.WorkOutPoint="15239249625600" MZ.WorkInPoint="0" explodedTracks="true">
		<uuid>da827cf6-d7aa-4c8f-bca5-f133bb84d45f</uuid>
		<duration>2026</duration>
		<rate>
			<timebase>30</timebase>
			<ntsc>TRUE</ntsc>
		</rate>
		<name>seq IMG_0646</name>
		<media>
			<video>
				<format>
					<samplecharacteristics>
						<rate>
							<timebase>30</timebase>
							<ntsc>TRUE</ntsc>
						</rate>
						<codec>
							<name>Apple ProRes 422</name>
							<appspecificdata>
								<appname>Final Cut Pro</appname>
								<appmanufacturer>Apple Inc.</appmanufacturer>
								<appversion>7.0</appversion>
								<data>
									<qtcodec>
										<codecname>Apple ProRes 422</codecname>
										<codectypename>Apple ProRes 422</codectypename>
										<codectypecode>apcn</codectypecode>
										<codecvendorcode>appl</codecvendorcode>
										<spatialquality>1024</spatialquality>
										<temporalquality>0</temporalquality>
										<keyframerate>0</keyframerate>
										<datarate>0</datarate>
									</qtcodec>
								</data>
							</appspecificdata>
						</codec>
						<width>3840</width>
						<height>2160</height>
						<anamorphic>FALSE</anamorphic>
						<pixelaspectratio>square</pixelaspectratio>
						<fielddominance>lower</fielddominance>
						<colordepth>24</colordepth>
					</samplecharacteristics>
				</format>
				<track TL.SQTrackShy="0" TL.SQTrackExpandedHeight="41" TL.SQTrackExpanded="0" MZ.TrackTargeted="1">
					<clipitem id="clipitem-3">
						<masterclipid>masterclip-2</masterclipid>
						<name>IMG_0646.MOV</name>
						<enabled>TRUE</enabled>
						<duration>5352</duration>
						<rate>
							<timebase>30</timebase>
							<ntsc>TRUE</ntsc>
						</rate>
						<start>0</start>
						<end>50</end>
						<in>665</in>
						<out>715</out>
						<pproTicksIn>5636318688000</pproTicksIn>
						<pproTicksOut>6060102048000</pproTicksOut>
						<alphatype>none</alphatype>
						<pixelaspectratio>square</pixelaspectratio>
						<anamorphic>FALSE</anamorphic>
						<file id="file-2">
							<name>IMG_0646.MOV</name>
							<pathurl>file://localhost/Users/tamtran/Documents/devy/00_repos/VideoEditing/ai-video-trimmer/raw/IMG_0646.MOV</pathurl>
							<rate>
								<timebase>30</timebase>
								<ntsc>FALSE</ntsc>
							</rate>
							<duration>5354</duration>
							<timecode>
								<rate>
									<timebase>30</timebase>
									<ntsc>FALSE</ntsc>
								</rate>
								<string>00:00:00:00</string>
								<frame>0</frame>
								<displayformat>NDF</displayformat>
							</timecode>
							<media>
								<video>
									<samplecharacteristics>
										<rate>
											<timebase>30</timebase>
											<ntsc>FALSE</ntsc>
										</rate>
										<width>3840</width>
										<height>2160</height>
										<anamorphic>FALSE</anamorphic>
										<pixelaspectratio>square</pixelaspectratio>
										<fielddominance>none</fielddominance>
									</samplecharacteristics>
								</video>
								<audio>
									<samplecharacteristics>
										<depth>16</depth>
										<samplerate>44100</samplerate>
									</samplecharacteristics>
									<channelcount>1</channelcount>
									<audiochannel>
										<sourcechannel>1</sourcechannel>
									</audiochannel>
								</audio>
							</media>
						</file>
						<logginginfo>
							<description></description>
							<scene></scene>
							<shottake></shottake>
							<lognote></lognote>
							<good></good>
							<originalvideofilename></originalvideofilename>
							<originalaudiofilename></originalaudiofilename>
						</logginginfo>
						<colorinfo>
							<lut></lut>
							<lut1></lut1>
							<asc_sop></asc_sop>
							<asc_sat></asc_sat>
							<lut2></lut2>
						</colorinfo>
						<labels>
							<label2>Iris</label2>
						</labels>
					</clipitem>
					<clipitem id="clipitem-4">
						<masterclipid>masterclip-2</masterclipid>
						<name>IMG_0646.MOV</name>
						<enabled>TRUE</enabled>
						<duration>5352</duration>
						<rate>
							<timebase>30</timebase>
							<ntsc>TRUE</ntsc>
						</rate>
						<start>50</start>
						<end>256</end>
						<in>741</in>
						<out>947</out>
						<pproTicksIn>6280469395200</pproTicksIn>
						<pproTicksOut>8026456838400</pproTicksOut>
						<alphatype>none</alphatype>
						<file id="file-2"/>
						<logginginfo>
							<description></description>
							<scene></scene>
							<shottake></shottake>
							<lognote></lognote>
							<good></good>
							<originalvideofilename></originalvideofilename>
							<originalaudiofilename></originalaudiofilename>
						</logginginfo>
						<colorinfo>
							<lut></lut>
							<lut1></lut1>
							<asc_sop></asc_sop>
							<asc_sat></asc_sat>
							<lut2></lut2>
						</colorinfo>
						<labels>
							<label2>Iris</label2>
						</labels>
					</clipitem>
					<clipitem id="clipitem-5">
						<masterclipid>masterclip-2</masterclipid>
						<name>IMG_0646.MOV</name>
						<enabled>TRUE</enabled>
						<duration>5352</duration>
						<rate>
							<timebase>30</timebase>
							<ntsc>TRUE</ntsc>
						</rate>
						<start>256</start>
						<end>598</end>
						<in>1101</in>
						<out>1443</out>
						<pproTicksIn>9331709587200</pproTicksIn>
						<pproTicksOut>12230387769600</pproTicksOut>
						<alphatype>none</alphatype>
						<file id="file-2"/>
						<logginginfo>
							<description></description>
							<scene></scene>
							<shottake></shottake>
							<lognote></lognote>
							<good></good>
							<originalvideofilename></originalvideofilename>
							<originalaudiofilename></originalaudiofilename>
						</logginginfo>
						<colorinfo>
							<lut></lut>
							<lut1></lut1>
							<asc_sop></asc_sop>
							<asc_sat></asc_sat>
							<lut2></lut2>
						</colorinfo>
						<labels>
							<label2>Iris</label2>
						</labels>
					</clipitem>
					<clipitem id="clipitem-6">
						<masterclipid>masterclip-2</masterclipid>
						<name>IMG_0646.MOV</name>
						<enabled>TRUE</enabled>
						<duration>5352</duration>
						<rate>
							<timebase>30</timebase>
							<ntsc>TRUE</ntsc>
						</rate>
						<start>598</start>
						<end>708</end>
						<in>2286</in>
						<out>2396</out>
						<pproTicksIn>19375375219200</pproTicksIn>
						<pproTicksOut>20307698611200</pproTicksOut>
						<alphatype>none</alphatype>
						<file id="file-2"/>
						<logginginfo>
							<description></description>
							<scene></scene>
							<shottake></shottake>
							<lognote></lognote>
							<good></good>
							<originalvideofilename></originalvideofilename>
							<originalaudiofilename></originalaudiofilename>
						</logginginfo>
						<colorinfo>
							<lut></lut>
							<lut1></lut1>
							<asc_sop></asc_sop>
							<asc_sat></asc_sat>
							<lut2></lut2>
						</colorinfo>
						<labels>
							<label2>Iris</label2>
						</labels>
					</clipitem>
					<clipitem id="clipitem-7">
						<masterclipid>masterclip-2</masterclipid>
						<name>IMG_0646.MOV</name>
						<enabled>TRUE</enabled>
						<duration>5352</duration>
						<rate>
							<timebase>30</timebase>
							<ntsc>TRUE</ntsc>
						</rate>
						<start>708</start>
						<end>1138</end>
						<in>2415</in>
						<out>2845</out>
						<pproTicksIn>20468736288000</pproTicksIn>
						<pproTicksOut>24113273184000</pproTicksOut>
						<alphatype>none</alphatype>
						<file id="file-2"/>
						<logginginfo>
							<description></description>
							<scene></scene>
							<shottake></shottake>
							<lognote></lognote>
							<good></good>
							<originalvideofilename></originalvideofilename>
							<originalaudiofilename></originalaudiofilename>
						</logginginfo>
						<colorinfo>
							<lut></lut>
							<lut1></lut1>
							<asc_sop></asc_sop>
							<asc_sat></asc_sat>
							<lut2></lut2>
						</colorinfo>
						<labels>
							<label2>Iris</label2>
						</labels>
					</clipitem>
					<clipitem id="clipitem-8">
						<masterclipid>masterclip-2</masterclipid>
						<name>IMG_0646.MOV</name>
						<enabled>TRUE</enabled>
						<duration>5352</duration>
						<rate>
							<timebase>30</timebase>
							<ntsc>TRUE</ntsc>
						</rate>
						<start>1138</start>
						<end>1178</end>
						<in>3160</in>
						<out>3200</out>
						<pproTicksIn>26783108352000</pproTicksIn>
						<pproTicksOut>27122135040000</pproTicksOut>
						<alphatype>none</alphatype>
						<file id="file-2"/>
						<logginginfo>
							<description></description>
							<scene></scene>
							<shottake></shottake>
							<lognote></lognote>
							<good></good>
							<originalvideofilename></originalvideofilename>
							<originalaudiofilename></originalaudiofilename>
						</logginginfo>
						<colorinfo>
							<lut></lut>
							<lut1></lut1>
							<asc_sop></asc_sop>
							<asc_sat></asc_sat>
							<lut2></lut2>
						</colorinfo>
						<labels>
							<label2>Iris</label2>
						</labels>
					</clipitem>
					<clipitem id="clipitem-9">
						<masterclipid>masterclip-2</masterclipid>
						<name>IMG_0646.MOV</name>
						<enabled>TRUE</enabled>
						<duration>5352</duration>
						<rate>
							<timebase>30</timebase>
							<ntsc>TRUE</ntsc>
						</rate>
						<start>1178</start>
						<end>1233</end>
						<in>3221</in>
						<out>3276</out>
						<pproTicksIn>27300124051200</pproTicksIn>
						<pproTicksOut>27766285747200</pproTicksOut>
						<alphatype>none</alphatype>
						<file id="file-2"/>
						<logginginfo>
							<description></description>
							<scene></scene>
							<shottake></shottake>
							<lognote></lognote>
							<good></good>
							<originalvideofilename></originalvideofilename>
							<originalaudiofilename></originalaudiofilename>
						</logginginfo>
						<colorinfo>
							<lut></lut>
							<lut1></lut1>
							<asc_sop></asc_sop>
							<asc_sat></asc_sat>
							<lut2></lut2>
						</colorinfo>
						<labels>
							<label2>Iris</label2>
						</labels>
					</clipitem>
					<clipitem id="clipitem-10">
						<masterclipid>masterclip-2</masterclipid>
						<name>IMG_0646.MOV</name>
						<enabled>TRUE</enabled>
						<duration>5352</duration>
						<rate>
							<timebase>30</timebase>
							<ntsc>TRUE</ntsc>
						</rate>
						<start>1233</start>
						<end>1409</end>
						<in>3296</in>
						<out>3472</out>
						<pproTicksIn>27935799091200</pproTicksIn>
						<pproTicksOut>29427516518400</pproTicksOut>
						<alphatype>none</alphatype>
						<file id="file-2"/>
						<logginginfo>
							<description></description>
							<scene></scene>
							<shottake></shottake>
							<lognote></lognote>
							<good></good>
							<originalvideofilename></originalvideofilename>
							<originalaudiofilename></originalaudiofilename>
						</logginginfo>
						<colorinfo>
							<lut></lut>
							<lut1></lut1>
							<asc_sop></asc_sop>
							<asc_sat></asc_sat>
							<lut2></lut2>
						</colorinfo>
						<labels>
							<label2>Iris</label2>
						</labels>
					</clipitem>
					<clipitem id="clipitem-11">
						<masterclipid>masterclip-2</masterclipid>
						<name>IMG_0646.MOV</name>
						<enabled>TRUE</enabled>
						<duration>5352</duration>
						<rate>
							<timebase>30</timebase>
							<ntsc>TRUE</ntsc>
						</rate>
						<start>1410</start>
						<end>1455</end>
						<in>3488</in>
						<out>3533</out>
						<pproTicksIn>29563127193600</pproTicksIn>
						<pproTicksOut>29944532217600</pproTicksOut>
						<alphatype>none</alphatype>
						<file id="file-2"/>
						<logginginfo>
							<description></description>
							<scene></scene>
							<shottake></shottake>
							<lognote></lognote>
							<good></good>
							<originalvideofilename></originalvideofilename>
							<originalaudiofilename></originalaudiofilename>
						</logginginfo>
						<colorinfo>
							<lut></lut>
							<lut1></lut1>
							<asc_sop></asc_sop>
							<asc_sat></asc_sat>
							<lut2></lut2>
						</colorinfo>
						<labels>
							<label2>Iris</label2>
						</labels>
					</clipitem>
					<clipitem id="clipitem-12">
						<masterclipid>masterclip-2</masterclipid>
						<name>IMG_0646.MOV</name>
						<enabled>TRUE</enabled>
						<duration>5352</duration>
						<rate>
							<timebase>30</timebase>
							<ntsc>TRUE</ntsc>
						</rate>
						<start>1456</start>
						<end>1510</end>
						<in>3553</in>
						<out>3607</out>
						<pproTicksIn>30114045561600</pproTicksIn>
						<pproTicksOut>30571731590400</pproTicksOut>
						<alphatype>none</alphatype>
						<file id="file-2"/>
						<logginginfo>
							<description></description>
							<scene></scene>
							<shottake></shottake>
							<lognote></lognote>
							<good></good>
							<originalvideofilename></originalvideofilename>
							<originalaudiofilename></originalaudiofilename>
						</logginginfo>
						<colorinfo>
							<lut></lut>
							<lut1></lut1>
							<asc_sop></asc_sop>
							<asc_sat></asc_sat>
							<lut2></lut2>
						</colorinfo>
						<labels>
							<label2>Iris</label2>
						</labels>
					</clipitem>
					<clipitem id="clipitem-13">
						<masterclipid>masterclip-2</masterclipid>
						<name>IMG_0646.MOV</name>
						<enabled>TRUE</enabled>
						<duration>5352</duration>
						<rate>
							<timebase>30</timebase>
							<ntsc>TRUE</ntsc>
						</rate>
						<start>1511</start>
						<end>1557</end>
						<in>4287</in>
						<out>4333</out>
						<pproTicksIn>36335185286400</pproTicksIn>
						<pproTicksOut>36725065977600</pproTicksOut>
						<alphatype>none</alphatype>
						<file id="file-2"/>
						<logginginfo>
							<description></description>
							<scene></scene>
							<shottake></shottake>
							<lognote></lognote>
							<good></good>
							<originalvideofilename></originalvideofilename>
							<originalaudiofilename></originalaudiofilename>
						</logginginfo>
						<colorinfo>
							<lut></lut>
							<lut1></lut1>
							<asc_sop></asc_sop>
							<asc_sat></asc_sat>
							<lut2></lut2>
						</colorinfo>
						<labels>
							<label2>Iris</label2>
						</labels>
					</clipitem>
					<clipitem id="clipitem-14">
						<masterclipid>masterclip-2</masterclipid>
						<name>IMG_0646.MOV</name>
						<enabled>TRUE</enabled>
						<duration>5352</duration>
						<rate>
							<timebase>30</timebase>
							<ntsc>TRUE</ntsc>
						</rate>
						<start>1558</start>
						<end>1700</end>
						<in>4452</in>
						<out>4594</out>
						<pproTicksIn>37733670374400</pproTicksIn>
						<pproTicksOut>38937215116800</pproTicksOut>
						<alphatype>none</alphatype>
						<file id="file-2"/>
						<logginginfo>
							<description></description>
							<scene></scene>
							<shottake></shottake>
							<lognote></lognote>
							<good></good>
							<originalvideofilename></originalvideofilename>
							<originalaudiofilename></originalaudiofilename>
						</logginginfo>
						<colorinfo>
							<lut></lut>
							<lut1></lut1>
							<asc_sop></asc_sop>
							<asc_sat></asc_sat>
							<lut2></lut2>
						</colorinfo>
						<labels>
							<label2>Iris</label2>
						</labels>
					</clipitem>
					<clipitem id="clipitem-15">
						<masterclipid>masterclip-2</masterclipid>
						<name>IMG_0646.MOV</name>
						<enabled>TRUE</enabled>
						<duration>5352</duration>
						<rate>
							<timebase>30</timebase>
							<ntsc>TRUE</ntsc>
						</rate>
						<start>1701</start>
						<end>2026</end>
						<in>4765</in>
						<out>5090</out>
						<pproTicksIn>40386554208000</pproTicksIn>
						<pproTicksOut>43141146048000</pproTicksOut>
						<alphatype>none</alphatype>
						<file id="file-2"/>
						<logginginfo>
							<description></description>
							<scene></scene>
							<shottake></shottake>
							<lognote></lognote>
							<good></good>
							<originalvideofilename></originalvideofilename>
							<originalaudiofilename></originalaudiofilename>
						</logginginfo>
						<colorinfo>
							<lut></lut>
							<lut1></lut1>
							<asc_sop></asc_sop>
							<asc_sat></asc_sat>
							<lut2></lut2>
						</colorinfo>
						<labels>
							<label2>Iris</label2>
						</labels>
					</clipitem>
					<enabled>TRUE</enabled>
					<locked>FALSE</locked>
				</track>
				<track TL.SQTrackShy="0" TL.SQTrackExpandedHeight="41" TL.SQTrackExpanded="0" MZ.TrackTargeted="0">
					<enabled>TRUE</enabled>
					<locked>FALSE</locked>
				</track>
				<track TL.SQTrackShy="0" TL.SQTrackExpandedHeight="41" TL.SQTrackExpanded="0" MZ.TrackTargeted="0">
					<enabled>TRUE</enabled>
					<locked>FALSE</locked>
				</track>
			</video>
			<audio>
				<numOutputChannels>2</numOutputChannels>
				<format>
					<samplecharacteristics>
						<depth>16</depth>
						<samplerate>48000</samplerate>
					</samplecharacteristics>
				</format>
				<outputs>
					<group>
						<index>1</index>
						<numchannels>1</numchannels>
						<downmix>0</downmix>
						<channel>
							<index>1</index>
						</channel>
					</group>
					<group>
						<index>2</index>
						<numchannels>1</numchannels>
						<downmix>0</downmix>
						<channel>
							<index>2</index>
						</channel>
					</group>
				</outputs>
				<track TL.SQTrackAudioKeyframeStyle="0" TL.SQTrackShy="0" TL.SQTrackExpandedHeight="41" TL.SQTrackExpanded="0" MZ.TrackTargeted="1" MZ.TrackName="Audio 1" PannerCurrentValue="0.5" PannerIsInverted="true" PannerStartKeyframe="-91445760000000000,0.5,0,0,0,0,0,0" PannerName="Balance" currentExplodedTrackIndex="0" totalExplodedTrackCount="1" premiereTrackType="Stereo">
					<clipitem id="clipitem-16" premiereChannelType="mono">
						<masterclipid>masterclip-2</masterclipid>
						<name>IMG_0646.MOV</name>
						<enabled>TRUE</enabled>
						<duration>5352</duration>
						<rate>
							<timebase>30</timebase>
							<ntsc>TRUE</ntsc>
						</rate>
						<start>0</start>
						<end>50</end>
						<in>665</in>
						<out>715</out>
						<pproTicksIn>5636318688000</pproTicksIn>
						<pproTicksOut>6060102048000</pproTicksOut>
						<file id="file-2"/>
						<sourcetrack>
							<mediatype>audio</mediatype>
							<trackindex>1</trackindex>
						</sourcetrack>
						<logginginfo>
							<description></description>
							<scene></scene>
							<shottake></shottake>
							<lognote></lognote>
							<good></good>
							<originalvideofilename></originalvideofilename>
							<originalaudiofilename></originalaudiofilename>
						</logginginfo>
						<colorinfo>
							<lut></lut>
							<lut1></lut1>
							<asc_sop></asc_sop>
							<asc_sat></asc_sat>
							<lut2></lut2>
						</colorinfo>
						<labels>
							<label2>Iris</label2>
						</labels>
					</clipitem>
					<clipitem id="clipitem-17" premiereChannelType="mono">
						<masterclipid>masterclip-2</masterclipid>
						<name>IMG_0646.MOV</name>
						<enabled>TRUE</enabled>
						<duration>5352</duration>
						<rate>
							<timebase>30</timebase>
							<ntsc>TRUE</ntsc>
						</rate>
						<start>50</start>
						<end>256</end>
						<in>741</in>
						<out>947</out>
						<pproTicksIn>6280469395200</pproTicksIn>
						<pproTicksOut>8026456838400</pproTicksOut>
						<file id="file-2"/>
						<sourcetrack>
							<mediatype>audio</mediatype>
							<trackindex>1</trackindex>
						</sourcetrack>
						<logginginfo>
							<description></description>
							<scene></scene>
							<shottake></shottake>
							<lognote></lognote>
							<good></good>
							<originalvideofilename></originalvideofilename>
							<originalaudiofilename></originalaudiofilename>
						</logginginfo>
						<colorinfo>
							<lut></lut>
							<lut1></lut1>
							<asc_sop></asc_sop>
							<asc_sat></asc_sat>
							<lut2></lut2>
						</colorinfo>
						<labels>
							<label2>Iris</label2>
						</labels>
					</clipitem>
					<clipitem id="clipitem-18" premiereChannelType="mono">
						<masterclipid>masterclip-2</masterclipid>
						<name>IMG_0646.MOV</name>
						<enabled>TRUE</enabled>
						<duration>5352</duration>
						<rate>
							<timebase>30</timebase>
							<ntsc>TRUE</ntsc>
						</rate>
						<start>256</start>
						<end>598</end>
						<in>1101</in>
						<out>1443</out>
						<pproTicksIn>9331709587200</pproTicksIn>
						<pproTicksOut>12230387769600</pproTicksOut>
						<file id="file-2"/>
						<sourcetrack>
							<mediatype>audio</mediatype>
							<trackindex>1</trackindex>
						</sourcetrack>
						<logginginfo>
							<description></description>
							<scene></scene>
							<shottake></shottake>
							<lognote></lognote>
							<good></good>
							<originalvideofilename></originalvideofilename>
							<originalaudiofilename></originalaudiofilename>
						</logginginfo>
						<colorinfo>
							<lut></lut>
							<lut1></lut1>
							<asc_sop></asc_sop>
							<asc_sat></asc_sat>
							<lut2></lut2>
						</colorinfo>
						<labels>
							<label2>Iris</label2>
						</labels>
					</clipitem>
					<clipitem id="clipitem-19" premiereChannelType="mono">
						<masterclipid>masterclip-2</masterclipid>
						<name>IMG_0646.MOV</name>
						<enabled>TRUE</enabled>
						<duration>5352</duration>
						<rate>
							<timebase>30</timebase>
							<ntsc>TRUE</ntsc>
						</rate>
						<start>598</start>
						<end>708</end>
						<in>2286</in>
						<out>2396</out>
						<pproTicksIn>19375375219200</pproTicksIn>
						<pproTicksOut>20307698611200</pproTicksOut>
						<file id="file-2"/>
						<sourcetrack>
							<mediatype>audio</mediatype>
							<trackindex>1</trackindex>
						</sourcetrack>
						<logginginfo>
							<description></description>
							<scene></scene>
							<shottake></shottake>
							<lognote></lognote>
							<good></good>
							<originalvideofilename></originalvideofilename>
							<originalaudiofilename></originalaudiofilename>
						</logginginfo>
						<colorinfo>
							<lut></lut>
							<lut1></lut1>
							<asc_sop></asc_sop>
							<asc_sat></asc_sat>
							<lut2></lut2>
						</colorinfo>
						<labels>
							<label2>Iris</label2>
						</labels>
					</clipitem>
					<clipitem id="clipitem-20" premiereChannelType="mono">
						<masterclipid>masterclip-2</masterclipid>
						<name>IMG_0646.MOV</name>
						<enabled>TRUE</enabled>
						<duration>5352</duration>
						<rate>
							<timebase>30</timebase>
							<ntsc>TRUE</ntsc>
						</rate>
						<start>708</start>
						<end>1138</end>
						<in>2415</in>
						<out>2845</out>
						<pproTicksIn>20468736288000</pproTicksIn>
						<pproTicksOut>24113273184000</pproTicksOut>
						<file id="file-2"/>
						<sourcetrack>
							<mediatype>audio</mediatype>
							<trackindex>1</trackindex>
						</sourcetrack>
						<logginginfo>
							<description></description>
							<scene></scene>
							<shottake></shottake>
							<lognote></lognote>
							<good></good>
							<originalvideofilename></originalvideofilename>
							<originalaudiofilename></originalaudiofilename>
						</logginginfo>
						<colorinfo>
							<lut></lut>
							<lut1></lut1>
							<asc_sop></asc_sop>
							<asc_sat></asc_sat>
							<lut2></lut2>
						</colorinfo>
						<labels>
							<label2>Iris</label2>
						</labels>
					</clipitem>
					<clipitem id="clipitem-21" premiereChannelType="mono">
						<masterclipid>masterclip-2</masterclipid>
						<name>IMG_0646.MOV</name>
						<enabled>TRUE</enabled>
						<duration>5352</duration>
						<rate>
							<timebase>30</timebase>
							<ntsc>TRUE</ntsc>
						</rate>
						<start>1138</start>
						<end>1178</end>
						<in>3160</in>
						<out>3200</out>
						<pproTicksIn>26783108352000</pproTicksIn>
						<pproTicksOut>27122135040000</pproTicksOut>
						<file id="file-2"/>
						<sourcetrack>
							<mediatype>audio</mediatype>
							<trackindex>1</trackindex>
						</sourcetrack>
						<logginginfo>
							<description></description>
							<scene></scene>
							<shottake></shottake>
							<lognote></lognote>
							<good></good>
							<originalvideofilename></originalvideofilename>
							<originalaudiofilename></originalaudiofilename>
						</logginginfo>
						<colorinfo>
							<lut></lut>
							<lut1></lut1>
							<asc_sop></asc_sop>
							<asc_sat></asc_sat>
							<lut2></lut2>
						</colorinfo>
						<labels>
							<label2>Iris</label2>
						</labels>
					</clipitem>
					<clipitem id="clipitem-22" premiereChannelType="mono">
						<masterclipid>masterclip-2</masterclipid>
						<name>IMG_0646.MOV</name>
						<enabled>TRUE</enabled>
						<duration>5352</duration>
						<rate>
							<timebase>30</timebase>
							<ntsc>TRUE</ntsc>
						</rate>
						<start>1178</start>
						<end>1233</end>
						<in>3221</in>
						<out>3276</out>
						<pproTicksIn>27300124051200</pproTicksIn>
						<pproTicksOut>27766285747200</pproTicksOut>
						<file id="file-2"/>
						<sourcetrack>
							<mediatype>audio</mediatype>
							<trackindex>1</trackindex>
						</sourcetrack>
						<logginginfo>
							<description></description>
							<scene></scene>
							<shottake></shottake>
							<lognote></lognote>
							<good></good>
							<originalvideofilename></originalvideofilename>
							<originalaudiofilename></originalaudiofilename>
						</logginginfo>
						<colorinfo>
							<lut></lut>
							<lut1></lut1>
							<asc_sop></asc_sop>
							<asc_sat></asc_sat>
							<lut2></lut2>
						</colorinfo>
						<labels>
							<label2>Iris</label2>
						</labels>
					</clipitem>
					<clipitem id="clipitem-23" premiereChannelType="mono">
						<masterclipid>masterclip-2</masterclipid>
						<name>IMG_0646.MOV</name>
						<enabled>TRUE</enabled>
						<duration>5352</duration>
						<rate>
							<timebase>30</timebase>
							<ntsc>TRUE</ntsc>
						</rate>
						<start>1233</start>
						<end>1409</end>
						<in>3296</in>
						<out>3472</out>
						<pproTicksIn>27935799091200</pproTicksIn>
						<pproTicksOut>29427516518400</pproTicksOut>
						<file id="file-2"/>
						<sourcetrack>
							<mediatype>audio</mediatype>
							<trackindex>1</trackindex>
						</sourcetrack>
						<logginginfo>
							<description></description>
							<scene></scene>
							<shottake></shottake>
							<lognote></lognote>
							<good></good>
							<originalvideofilename></originalvideofilename>
							<originalaudiofilename></originalaudiofilename>
						</logginginfo>
						<colorinfo>
							<lut></lut>
							<lut1></lut1>
							<asc_sop></asc_sop>
							<asc_sat></asc_sat>
							<lut2></lut2>
						</colorinfo>
						<labels>
							<label2>Iris</label2>
						</labels>
					</clipitem>
					<clipitem id="clipitem-24" premiereChannelType="mono">
						<masterclipid>masterclip-2</masterclipid>
						<name>IMG_0646.MOV</name>
						<enabled>TRUE</enabled>
						<duration>5352</duration>
						<rate>
							<timebase>30</timebase>
							<ntsc>TRUE</ntsc>
						</rate>
						<start>1410</start>
						<end>1455</end>
						<in>3488</in>
						<out>3533</out>
						<pproTicksIn>29563127193600</pproTicksIn>
						<pproTicksOut>29944532217600</pproTicksOut>
						<file id="file-2"/>
						<sourcetrack>
							<mediatype>audio</mediatype>
							<trackindex>1</trackindex>
						</sourcetrack>
						<logginginfo>
							<description></description>
							<scene></scene>
							<shottake></shottake>
							<lognote></lognote>
							<good></good>
							<originalvideofilename></originalvideofilename>
							<originalaudiofilename></originalaudiofilename>
						</logginginfo>
						<colorinfo>
							<lut></lut>
							<lut1></lut1>
							<asc_sop></asc_sop>
							<asc_sat></asc_sat>
							<lut2></lut2>
						</colorinfo>
						<labels>
							<label2>Iris</label2>
						</labels>
					</clipitem>
					<clipitem id="clipitem-25" premiereChannelType="mono">
						<masterclipid>masterclip-2</masterclipid>
						<name>IMG_0646.MOV</name>
						<enabled>TRUE</enabled>
						<duration>5352</duration>
						<rate>
							<timebase>30</timebase>
							<ntsc>TRUE</ntsc>
						</rate>
						<start>1456</start>
						<end>1510</end>
						<in>3553</in>
						<out>3607</out>
						<pproTicksIn>30114045561600</pproTicksIn>
						<pproTicksOut>30571731590400</pproTicksOut>
						<file id="file-2"/>
						<sourcetrack>
							<mediatype>audio</mediatype>
							<trackindex>1</trackindex>
						</sourcetrack>
						<logginginfo>
							<description></description>
							<scene></scene>
							<shottake></shottake>
							<lognote></lognote>
							<good></good>
							<originalvideofilename></originalvideofilename>
							<originalaudiofilename></originalaudiofilename>
						</logginginfo>
						<colorinfo>
							<lut></lut>
							<lut1></lut1>
							<asc_sop></asc_sop>
							<asc_sat></asc_sat>
							<lut2></lut2>
						</colorinfo>
						<labels>
							<label2>Iris</label2>
						</labels>
					</clipitem>
					<clipitem id="clipitem-26" premiereChannelType="mono">
						<masterclipid>masterclip-2</masterclipid>
						<name>IMG_0646.MOV</name>
						<enabled>TRUE</enabled>
						<duration>5352</duration>
						<rate>
							<timebase>30</timebase>
							<ntsc>TRUE</ntsc>
						</rate>
						<start>1511</start>
						<end>1557</end>
						<in>4287</in>
						<out>4333</out>
						<pproTicksIn>36335185286400</pproTicksIn>
						<pproTicksOut>36725065977600</pproTicksOut>
						<file id="file-2"/>
						<sourcetrack>
							<mediatype>audio</mediatype>
							<trackindex>1</trackindex>
						</sourcetrack>
						<logginginfo>
							<description></description>
							<scene></scene>
							<shottake></shottake>
							<lognote></lognote>
							<good></good>
							<originalvideofilename></originalvideofilename>
							<originalaudiofilename></originalaudiofilename>
						</logginginfo>
						<colorinfo>
							<lut></lut>
							<lut1></lut1>
							<asc_sop></asc_sop>
							<asc_sat></asc_sat>
							<lut2></lut2>
						</colorinfo>
						<labels>
							<label2>Iris</label2>
						</labels>
					</clipitem>
					<clipitem id="clipitem-27" premiereChannelType="mono">
						<masterclipid>masterclip-2</masterclipid>
						<name>IMG_0646.MOV</name>
						<enabled>TRUE</enabled>
						<duration>5352</duration>
						<rate>
							<timebase>30</timebase>
							<ntsc>TRUE</ntsc>
						</rate>
						<start>1558</start>
						<end>1700</end>
						<in>4452</in>
						<out>4594</out>
						<pproTicksIn>37733670374400</pproTicksIn>
						<pproTicksOut>38937215116800</pproTicksOut>
						<file id="file-2"/>
						<sourcetrack>
							<mediatype>audio</mediatype>
							<trackindex>1</trackindex>
						</sourcetrack>
						<logginginfo>
							<description></description>
							<scene></scene>
							<shottake></shottake>
							<lognote></lognote>
							<good></good>
							<originalvideofilename></originalvideofilename>
							<originalaudiofilename></originalaudiofilename>
						</logginginfo>
						<colorinfo>
							<lut></lut>
							<lut1></lut1>
							<asc_sop></asc_sop>
							<asc_sat></asc_sat>
							<lut2></lut2>
						</colorinfo>
						<labels>
							<label2>Iris</label2>
						</labels>
					</clipitem>
					<clipitem id="clipitem-28" premiereChannelType="mono">
						<masterclipid>masterclip-2</masterclipid>
						<name>IMG_0646.MOV</name>
						<enabled>TRUE</enabled>
						<duration>5352</duration>
						<rate>
							<timebase>30</timebase>
							<ntsc>TRUE</ntsc>
						</rate>
						<start>1701</start>
						<end>2026</end>
						<in>4765</in>
						<out>5090</out>
						<pproTicksIn>40386554208000</pproTicksIn>
						<pproTicksOut>43141146048000</pproTicksOut>
						<file id="file-2"/>
						<sourcetrack>
							<mediatype>audio</mediatype>
							<trackindex>1</trackindex>
						</sourcetrack>
						<logginginfo>
							<description></description>
							<scene></scene>
							<shottake></shottake>
							<lognote></lognote>
							<good></good>
							<originalvideofilename></originalvideofilename>
							<originalaudiofilename></originalaudiofilename>
						</logginginfo>
						<colorinfo>
							<lut></lut>
							<lut1></lut1>
							<asc_sop></asc_sop>
							<asc_sat></asc_sat>
							<lut2></lut2>
						</colorinfo>
						<labels>
							<label2>Iris</label2>
						</labels>
					</clipitem>
					<enabled>TRUE</enabled>
					<locked>FALSE</locked>
					<outputchannelindex>1</outputchannelindex>
				</track>
				<track TL.SQTrackAudioKeyframeStyle="0" TL.SQTrackShy="0" TL.SQTrackExpandedHeight="41" TL.SQTrackExpanded="0" MZ.TrackTargeted="1" MZ.TrackName="Audio 2" PannerCurrentValue="0.5" PannerIsInverted="true" PannerStartKeyframe="-91445760000000000,0.5,0,0,0,0,0,0" PannerName="Balance" currentExplodedTrackIndex="0" totalExplodedTrackCount="2" premiereTrackType="Stereo">
					<enabled>TRUE</enabled>
					<locked>FALSE</locked>
					<outputchannelindex>2</outputchannelindex>
				</track>
				<track TL.SQTrackAudioKeyframeStyle="0" TL.SQTrackShy="0" TL.SQTrackExpandedHeight="41" TL.SQTrackExpanded="0" MZ.TrackTargeted="1" MZ.TrackName="Audio 2" PannerCurrentValue="0.5" PannerIsInverted="true" PannerStartKeyframe="-91445760000000000,0.5,0,0,0,0,0,0" PannerName="Balance" currentExplodedTrackIndex="1" totalExplodedTrackCount="2" premiereTrackType="Stereo">
					<enabled>TRUE</enabled>
					<locked>FALSE</locked>
					<outputchannelindex>2</outputchannelindex>
				</track>
				<track TL.SQTrackAudioKeyframeStyle="0" TL.SQTrackShy="0" TL.SQTrackExpandedHeight="41" TL.SQTrackExpanded="0" MZ.TrackTargeted="1" MZ.TrackName="Audio 3" PannerCurrentValue="0.5" PannerIsInverted="true" PannerStartKeyframe="-91445760000000000,0.5,0,0,0,0,0,0" PannerName="Balance" currentExplodedTrackIndex="0" totalExplodedTrackCount="2" premiereTrackType="Stereo">
					<enabled>TRUE</enabled>
					<locked>FALSE</locked>
					<outputchannelindex>1</outputchannelindex>
				</track>
				<track TL.SQTrackAudioKeyframeStyle="0" TL.SQTrackShy="0" TL.SQTrackExpandedHeight="41" TL.SQTrackExpanded="0" MZ.TrackTargeted="1" MZ.TrackName="Audio 3" PannerCurrentValue="0.5" PannerIsInverted="true" PannerStartKeyframe="-91445760000000000,0.5,0,0,0,0,0,0" PannerName="Balance" currentExplodedTrackIndex="1" totalExplodedTrackCount="2" premiereTrackType="Stereo">
					<enabled>TRUE</enabled>
					<locked>FALSE</locked>
					<outputchannelindex>2</outputchannelindex>
				</track>
				<track TL.SQTrackAudioKeyframeStyle="0" TL.SQTrackShy="0" TL.SQTrackExpandedHeight="41" TL.SQTrackExpanded="0" MZ.TrackTargeted="1" MZ.TrackName="Audio 4" PannerCurrentValue="0.5" PannerIsInverted="true" PannerStartKeyframe="-91445760000000000,0.5,0,0,0,0,0,0" PannerName="Balance" currentExplodedTrackIndex="0" totalExplodedTrackCount="2" premiereTrackType="Stereo">
					<enabled>TRUE</enabled>
					<locked>FALSE</locked>
					<outputchannelindex>1</outputchannelindex>
				</track>
				<track TL.SQTrackAudioKeyframeStyle="0" TL.SQTrackShy="0" TL.SQTrackExpandedHeight="41" TL.SQTrackExpanded="0" MZ.TrackTargeted="1" MZ.TrackName="Audio 4" PannerCurrentValue="0.5" PannerIsInverted="true" PannerStartKeyframe="-91445760000000000,0.5,0,0,0,0,0,0" PannerName="Balance" currentExplodedTrackIndex="1" totalExplodedTrackCount="2" premiereTrackType="Stereo">
					<enabled>TRUE</enabled>
					<locked>FALSE</locked>
					<outputchannelindex>2</outputchannelindex>
				</track>
			</audio>
		</media>
		<timecode>
			<rate>
				<timebase>30</timebase>
				<ntsc>TRUE</ntsc>
			</rate>
			<string>00;00;00;00</string>
			<frame>0</frame>
			<displayformat>DF</displayformat>
		</timecode>
		<labels>
			<label2>Forest</label2>
		</labels>
		<logginginfo>
			<description></description>
			<scene></scene>
			<shottake></shottake>
			<lognote></lognote>
			<good></good>
			<originalvideofilename></originalvideofilename>
			<originalaudiofilename></originalaudiofilename>
		</logginginfo>
	</sequence>
</xmeml>
